<svg width="64" height="64" viewBox="0 0 64 64" fill="none" xmlns="http://www.w3.org/2000/svg">
<g clip-path="url(#clip0_2_64)">
<path d="M25.9915 67.3731C32.0906 67.7332 37.5431 63.8591 37.8652 58.4053C38.1872 52.9516 33.2285 48.4627 27.1294 48.1026C21.0303 47.7424 15.5778 51.6166 15.2558 57.0703C14.9337 62.524 19.8924 67.0129 25.9915 67.3731Z" fill="#A48F0F" stroke="black" stroke-width="1.7"/>
<ellipse cx="62.5762" cy="43.7383" rx="10.2598" ry="10.1602" fill="#FED174"/>
<circle cx="31.3984" cy="25.6094" r="34.518" fill="#FED174" stroke="black" stroke-width="1.7"/>
<g style="mix-blend-mode:overlay">
<ellipse cx="31" cy="25.5098" rx="33.668" ry="33.7676" fill="url(#paint0_radial_2_64)" fill-opacity="0.8"/>
<ellipse cx="31" cy="25.5098" rx="33.668" ry="33.7676" fill="url(#paint1_radial_2_64)"/>
</g>
<circle cx="-0.875" cy="12.6602" r="11.0102" fill="#FED174" stroke="black" stroke-width="1.7"/>
<path d="M-6.04749 50.7556C-3.052 52.8295 0.265041 53.8989 3.23214 53.9153C6.19431 53.9317 8.90083 52.889 10.4681 50.6253C12.0354 48.3616 12.0588 45.4613 11.001 42.6944C9.94138 39.9229 7.77302 37.1945 4.77753 35.1205C1.78204 33.0466 -1.535 31.9772 -4.50211 31.9608C-7.46427 31.9444 -10.1708 32.9871 -11.7381 35.2508C-13.3054 37.5145 -13.3288 40.4148 -12.2709 43.1817C-11.2113 45.9532 -9.04299 48.6817 -6.04749 50.7556Z" fill="#A48F0F" stroke="black" stroke-width="1.7"/>
<mask id="path-7-outside-1_2_64" maskUnits="userSpaceOnUse" x="-12.403" y="26.2629" width="28" height="26" fill="black">
<rect fill="white" x="-12.403" y="26.2629" width="28" height="26"/>
<path fill-rule="evenodd" clip-rule="evenodd" d="M12.1012 46.5835C12.1037 46.5799 12.1062 46.5764 12.1086 46.5728C15.4877 41.6923 13.686 34.5919 8.08449 30.7137C2.87901 27.1096 -3.77617 27.5565 -7.40302 31.5545C-3.67785 30.775 0.883832 31.7426 4.88133 34.5102C9.45618 37.6777 12.0842 42.3665 12.1012 46.5835Z"/>
</mask>
<path fill-rule="evenodd" clip-rule="evenodd" d="M12.1012 46.5835C12.1037 46.5799 12.1062 46.5764 12.1086 46.5728C15.4877 41.6923 13.686 34.5919 8.08449 30.7137C2.87901 27.1096 -3.77617 27.5565 -7.40302 31.5545C-3.67785 30.775 0.883832 31.7426 4.88133 34.5102C9.45618 37.6777 12.0842 42.3665 12.1012 46.5835Z" fill="#CEB302"/>
<path d="M12.1086 46.5728L10.7109 45.6051L10.7108 45.6052L12.1086 46.5728ZM12.1012 46.5835L10.4012 46.5904L10.4229 51.9802L13.4975 47.5533L12.1012 46.5835ZM8.08449 30.7137L7.11679 32.1114L7.11679 32.1114L8.08449 30.7137ZM-7.40302 31.5545L-8.66212 30.4123L-12.1808 34.291L-7.05484 33.2185L-7.40302 31.5545ZM4.88133 34.5102L5.84904 33.1125L5.84904 33.1125L4.88133 34.5102ZM10.7108 45.6052C10.7089 45.608 10.7069 45.6109 10.7049 45.6138L13.4975 47.5533C13.5004 47.549 13.5034 47.5447 13.5064 47.5403L10.7108 45.6052ZM7.11679 32.1114C12.1334 35.5847 13.4346 41.6711 10.7109 45.6051L13.5063 47.5405C17.5407 41.7134 15.2386 33.5991 9.05219 29.316L7.11679 32.1114ZM-6.14391 32.6967C-3.20015 29.4517 2.46904 28.8935 7.11679 32.1114L9.05219 29.316C3.28897 25.3258 -4.35219 25.6613 -8.66212 30.4123L-6.14391 32.6967ZM-7.05484 33.2185C-3.85427 32.5488 0.238512 33.3635 3.91363 35.9079L5.84904 33.1125C1.52915 30.1217 -3.50144 29.0013 -7.75119 29.8905L-7.05484 33.2185ZM3.91363 35.9079C8.13403 38.8299 10.3869 43.0424 10.4012 46.5904L13.8012 46.5767C13.7815 41.6906 10.7783 36.5254 5.84904 33.1125L3.91363 35.9079Z" fill="black" mask="url(#path-7-outside-1_2_64)"/>
<mask id="path-9-outside-2_2_64" maskUnits="userSpaceOnUse" x="-16.0602" y="-12.2307" width="92" height="82" fill="black">
<rect fill="white" x="-16.0602" y="-12.2307" width="92" height="82"/>
<path fill-rule="evenodd" clip-rule="evenodd" d="M37.0713 58.7647C43.8201 57.625 49.8879 54.4811 54.6411 49.9665C56.5066 52.3346 59.4 53.8551 62.6485 53.8551C68.2749 53.8551 72.8359 49.294 72.8359 43.6676C72.8359 38.5586 69.0752 34.3281 64.171 33.5932C64.8089 31.0014 65.1473 28.2918 65.1473 25.5032C65.1473 6.87245 50.0441 -8.23074 31.4133 -8.23074C20.8093 -8.23074 11.348 -3.33801 5.16384 4.31309C3.5265 3.19029 1.54464 2.53335 -0.590661 2.53335C-6.21704 2.53335 -10.7781 7.09443 -10.7781 12.7208C-10.7781 17.7953 -7.06795 22.0032 -2.21228 22.7799C-2.28405 23.6782 -2.32062 24.5864 -2.32062 25.5032C-2.32062 26.5401 -2.27383 27.566 -2.18227 28.5791C-4.1615 29.0523 -5.95081 30.053 -7.31296 31.5545C-5.59779 31.1956 -3.70529 31.2071 -1.77217 31.5941C-1.67508 32.1265 -1.56548 32.6546 -1.44371 33.178C-5.41866 32.2429 -9.11966 33.0922 -10.9492 35.7347C-13.6712 39.6662 -11.2197 46.0785 -5.4736 50.0568C-0.132151 53.755 6.17596 54.0482 9.22443 50.9131C11.3927 52.8081 13.8057 54.43 16.4097 55.7253C16.2955 56.177 16.2225 56.6429 16.1943 57.1204C15.9078 61.9732 20.3569 66.1836 26.1317 66.5246C31.7429 66.8559 36.5411 63.412 37.0713 58.7647Z"/>
</mask>
<path d="M54.6411 49.9665L57.0449 48.0729C56.5123 47.3968 55.7196 46.9763 54.8612 46.9144C54.0027 46.8525 53.1579 47.155 52.5338 47.7477L54.6411 49.9665ZM37.0713 58.7647L36.5617 55.7474C35.2175 55.9744 34.1855 57.0633 34.031 58.4178L37.0713 58.7647ZM64.171 33.5932L61.1996 32.8618C60.9939 33.6976 61.1497 34.5815 61.6289 35.2965C62.108 36.0116 62.8662 36.4918 63.7175 36.6194L64.171 33.5932ZM5.16384 4.31309L3.43326 6.83673C4.75011 7.73975 6.53995 7.47845 7.54367 6.23664L5.16384 4.31309ZM-2.21228 22.7799L0.837998 23.0236C0.965125 21.4322 -0.152545 20.0105 -1.72897 19.7583L-2.21228 22.7799ZM-2.18227 28.5791L-1.47065 31.5552C0.00740165 31.2018 1.00212 29.8172 0.86531 28.3036L-2.18227 28.5791ZM-7.31296 31.5545L-9.57934 29.4985C-10.4703 30.4806 -10.6273 31.9248 -9.96826 33.0754C-9.30923 34.226 -7.98413 34.8212 -6.68625 34.5497L-7.31296 31.5545ZM-1.77217 31.5941L1.23819 31.0451C1.01321 29.8114 0.0582029 28.8398 -1.17149 28.5936L-1.77217 31.5941ZM-1.44371 33.178L-2.14443 36.1567C-1.11421 36.3991 -0.0318906 36.0919 0.717389 35.3444C1.46667 34.597 1.77652 33.5154 1.53669 32.4846L-1.44371 33.178ZM-10.9492 35.7347L-8.43333 37.4765L-8.43333 37.4765L-10.9492 35.7347ZM-5.4736 50.0568L-7.21546 52.5727L-7.21546 52.5727L-5.4736 50.0568ZM9.22443 50.9131L11.2381 48.609C10.0132 47.5385 8.1647 47.6135 7.03059 48.7799L9.22443 50.9131ZM16.4097 55.7253L19.3764 56.4754C19.7293 55.0796 19.0616 53.6266 17.7725 52.9855L16.4097 55.7253ZM16.1943 57.1204L19.249 57.3008L19.249 57.3008L16.1943 57.1204ZM26.1317 66.5246L26.312 63.4699L26.312 63.4699L26.1317 66.5246ZM52.5338 47.7477C48.2084 51.8561 42.6923 54.7121 36.5617 55.7474L37.5808 61.782C44.9479 60.5379 51.5674 57.1062 56.7485 52.1852L52.5338 47.7477ZM62.6485 50.7951C60.3773 50.7951 58.3551 49.7362 57.0449 48.0729L52.2373 51.86C54.658 54.933 58.4227 56.9151 62.6485 56.9151V50.7951ZM69.7759 43.6676C69.7759 47.604 66.5849 50.7951 62.6485 50.7951V56.9151C69.9648 56.9151 75.8959 50.984 75.8959 43.6676H69.7759ZM63.7175 36.6194C67.1459 37.1331 69.7759 40.096 69.7759 43.6676H75.8959C75.8959 37.0213 71.0045 31.523 64.6244 30.5669L63.7175 36.6194ZM62.0873 25.5032C62.0873 28.0434 61.7791 30.5075 61.1996 32.8618L67.1423 34.3245C67.8386 31.4953 68.2073 28.5402 68.2073 25.5032H62.0873ZM31.4133 -5.17074C48.3541 -5.17074 62.0873 8.56244 62.0873 25.5032H68.2073C68.2073 5.18246 51.734 -11.2907 31.4133 -11.2907V-5.17074ZM7.54367 6.23664C13.1718 -0.726588 21.7725 -5.17074 31.4133 -5.17074V-11.2907C19.8461 -11.2907 9.52415 -5.94943 2.78401 2.38955L7.54367 6.23664ZM-0.590661 5.59335C0.907438 5.59335 2.28916 6.05216 3.43326 6.83673L6.89441 1.78946C4.76384 0.328432 2.18184 -0.526651 -0.590661 -0.526651V5.59335ZM-7.71812 12.7208C-7.71812 8.78442 -4.52705 5.59335 -0.590661 5.59335V-0.526651C-7.90703 -0.526651 -13.8381 5.40444 -13.8381 12.7208H-7.71812ZM-1.72897 19.7583C-5.12362 19.2153 -7.71812 16.2682 -7.71812 12.7208H-13.8381C-13.8381 19.3224 -9.01227 24.7911 -2.6956 25.8015L-1.72897 19.7583ZM0.739385 25.5032C0.739385 24.6678 0.772706 23.8409 0.837998 23.0236L-5.26257 22.5362C-5.3408 23.5155 -5.38062 24.505 -5.38062 25.5032H0.739385ZM0.86531 28.3036C0.782009 27.382 0.739385 26.448 0.739385 25.5032H-5.38062C-5.38062 26.6322 -5.32968 27.75 -5.22984 28.8546L0.86531 28.3036ZM-5.04657 33.6105C-4.13438 32.605 -2.90534 31.8982 -1.47065 31.5552L-2.89388 25.603C-5.41767 26.2065 -7.76724 27.501 -9.57934 29.4985L-5.04657 33.6105ZM-1.17149 28.5936C-3.46288 28.1349 -5.77549 28.1066 -7.93966 28.5594L-6.68625 34.5497C-5.42009 34.2847 -3.9477 34.2793 -2.37285 34.5946L-1.17149 28.5936ZM1.53669 32.4846C1.42603 32.009 1.32644 31.5291 1.23819 31.0451L-4.78253 32.1431C-4.67659 32.724 -4.557 33.3003 -4.4241 33.8715L1.53669 32.4846ZM-8.43333 37.4765C-7.61438 36.2937 -5.49121 35.3694 -2.14443 36.1567L-0.742981 30.1993C-5.34611 29.1165 -10.6249 29.8907 -13.465 33.9928L-8.43333 37.4765ZM-3.73174 47.5409C-6.16401 45.8569 -7.78516 43.7303 -8.52871 41.7854C-9.2786 39.824 -9.05177 38.3698 -8.43333 37.4765L-13.465 33.9928C-15.5686 37.0311 -15.4771 40.7488 -14.2452 43.9709C-13.0069 47.2097 -10.5293 50.2783 -7.21546 52.5727L-3.73174 47.5409ZM7.03059 48.7799C6.29981 49.5314 4.93425 50.1032 2.90248 49.992C0.900077 49.8824 -1.47513 49.1033 -3.73174 47.5409L-7.21546 52.5727C-4.13062 54.7085 -0.681051 55.9251 2.56808 56.1029C5.78784 56.279 9.10057 55.4299 11.4183 53.0463L7.03059 48.7799ZM17.7725 52.9855C15.4055 51.8081 13.2109 50.3332 11.2381 48.609L7.21076 53.2172C9.57445 55.2829 12.2058 57.0519 15.047 58.4651L17.7725 52.9855ZM19.249 57.3008C19.2658 57.0173 19.309 56.7421 19.3764 56.4754L13.4431 54.9751C13.2821 55.6119 13.1793 56.2685 13.1397 56.94L19.249 57.3008ZM26.312 63.4699C21.7049 63.1978 19.0902 59.9902 19.249 57.3008L13.1397 56.94C12.7254 63.9562 19.0089 69.1693 25.9513 69.5792L26.312 63.4699ZM34.031 58.4178C33.734 61.021 30.7709 63.7332 26.312 63.4699L25.9513 69.5792C32.7149 69.9786 39.3481 65.803 40.1116 59.1116L34.031 58.4178Z" fill="black" mask="url(#path-9-outside-2_2_64)"/>
<path fill-rule="evenodd" clip-rule="evenodd" d="M30.0831 11.0987C29.0951 12.3213 28.1694 13.9031 27.4418 15.7143C25.5059 20.5332 25.7054 25.1503 27.8875 26.0269C30.0695 26.9035 33.4078 23.7077 35.3438 18.8888C35.3917 18.7696 35.4383 18.6505 35.4835 18.5316L30.0831 11.0987Z" fill="black"/>
<path fill-rule="evenodd" clip-rule="evenodd" d="M47.0069 33.0215C47.9811 32.0316 48.9327 30.7935 49.7689 29.3727C50.7005 27.7897 51.3642 26.1918 51.7433 24.7348L44.6646 21.9672C43.8763 22.8495 43.1144 23.8902 42.4298 25.0534C41.5562 26.5377 40.9183 28.0351 40.5296 29.4172L47.0069 33.0215Z" fill="black"/>
</g>
<defs>
<radialGradient id="paint0_radial_2_64" cx="0" cy="0" r="1" gradientUnits="userSpaceOnUse" gradientTransform="translate(29.3694 24.2591) rotate(-133.169) scale(44.5843 44.5761)">
<stop offset="0.505108" stop-color="#808080"/>
<stop offset="0.505208"/>
<stop offset="0.760317"/>
<stop offset="0.760417" stop-color="white"/>
</radialGradient>
<radialGradient id="paint1_radial_2_64" cx="0" cy="0" r="1" gradientUnits="userSpaceOnUse" gradientTransform="translate(21.3121 15.0235) rotate(-121.051) scale(46.4903 46.4262)">
<stop offset="0.817608" stop-color="#808080"/>
<stop offset="0.817708" stop-color="white" stop-opacity="0"/>
</radialGradient>
<clipPath id="clip0_2_64">
<rect width="64" height="64" fill="white"/>
</clipPath>
</defs>
</svg>
