<svg width="64" height="64" fill="none" xmlns="http://www.w3.org/2000/svg"><g clip-path="url(#a)"><path d="M25.991 67.373c6.1.36 11.552-3.514 11.874-8.968.322-5.453-4.637-9.942-10.736-10.302-6.099-.36-11.551 3.514-11.873 8.967-.322 5.454 4.636 9.943 10.735 10.303Z" fill="#A48F0F" stroke="#000" stroke-width="1.7"/><ellipse cx="62.576" cy="43.738" rx="10.26" ry="10.16" fill="#FED174"/><circle cx="31.398" cy="25.609" r="34.518" fill="#FED174" stroke="#000" stroke-width="1.7"/><g style="mix-blend-mode:overlay"><ellipse cx="31" cy="25.51" rx="33.668" ry="33.768" fill="url(#b)" fill-opacity=".8"/><ellipse cx="31" cy="25.51" rx="33.668" ry="33.768" fill="url(#c)"/></g><circle cx="-.875" cy="12.66" r="11.01" fill="#FED174" stroke="#000" stroke-width="1.7"/><path d="M-6.047 50.756c2.995 2.074 6.312 3.143 9.28 3.16 2.961.016 5.668-1.027 7.235-3.29 1.567-2.264 1.59-5.165.533-7.932-1.06-2.771-3.228-5.5-6.223-7.574-2.996-2.073-6.313-3.143-9.28-3.16-2.962-.016-5.669 1.027-7.236 3.29-1.567 2.264-1.59 5.165-.533 7.932 1.06 2.771 3.228 5.5 6.224 7.574Z" fill="#A48F0F" stroke="#000" stroke-width="1.7"/><mask id="d" maskUnits="userSpaceOnUse" x="-12.403" y="26.263" width="28" height="26" fill="#000"><path fill="#fff" d="M-12.403 26.263h28v26h-28z"/><path fill-rule="evenodd" clip-rule="evenodd" d="m12.101 46.584.008-.011c3.379-4.88 1.577-11.981-4.025-15.86-5.205-3.603-11.86-3.157-15.487.841 3.725-.779 8.287.189 12.284 2.956 4.575 3.168 7.203 7.857 7.22 12.074Z"/></mask><path fill-rule="evenodd" clip-rule="evenodd" d="m12.101 46.584.008-.011c3.379-4.88 1.577-11.981-4.025-15.86-5.205-3.603-11.86-3.157-15.487.841 3.725-.779 8.287.189 12.284 2.956 4.575 3.168 7.203 7.857 7.22 12.074Z" fill="#CEB302"/><path d="m12.109 46.573-1.398-.968 1.398.968Zm-.008.01-1.7.007.022 5.39 3.075-4.427-1.397-.97Zm-4.017-15.87-.967 1.398.967-1.397Zm-15.487.841-1.26-1.142-3.518 3.879 5.126-1.072-.348-1.665ZM4.881 34.51l.968-1.398-.968 1.398Zm5.83 11.095a1.4 1.4 0 0 1-.006.009l2.793 1.94.008-.014-2.795-1.935ZM7.117 32.111c5.016 3.474 6.318 9.56 3.594 13.494l2.795 1.936c4.035-5.828 1.733-13.942-4.454-18.225l-1.935 2.795Zm-13.26.586c2.943-3.245 8.612-3.804 13.26-.586l1.935-2.795c-5.763-3.99-13.404-3.655-17.714 1.096l2.518 2.285Zm-.912.521c3.2-.67 7.294.145 10.969 2.69l1.935-2.796c-4.32-2.99-9.35-4.11-13.6-3.222l.696 3.328Zm10.969 2.69c4.22 2.922 6.473 7.134 6.487 10.682l3.4-.013c-.02-4.886-3.023-10.052-7.952-13.465l-1.935 2.796Z" fill="#000" mask="url(#d)"/><mask id="e" maskUnits="userSpaceOnUse" x="-16.06" y="-12.231" width="92" height="82" fill="#000"><path fill="#fff" d="M-16.06-12.231h92v82h-92z"/><path fill-rule="evenodd" clip-rule="evenodd" d="M37.071 58.765a33.636 33.636 0 0 0 17.57-8.798 10.17 10.17 0 0 0 8.008 3.888c5.626 0 10.187-4.561 10.187-10.187 0-5.11-3.76-9.34-8.665-10.075.638-2.592.976-5.301.976-8.09 0-18.63-15.103-33.734-33.734-33.734-10.604 0-20.065 4.893-26.25 12.544A10.14 10.14 0 0 0-.59 2.533c-5.626 0-10.187 4.561-10.187 10.188 0 5.074 3.71 9.282 8.566 10.059a34.19 34.19 0 0 0 .03 5.8c-1.98.472-3.769 1.473-5.131 2.975 1.715-.36 3.608-.348 5.54.04.098.532.208 1.06.33 1.583-3.976-.935-7.677-.086-9.506 2.557-2.722 3.931-.27 10.343 5.475 14.322 5.342 3.698 11.65 3.991 14.698.856a33.792 33.792 0 0 0 7.186 4.812 7.486 7.486 0 0 0-.216 1.395c-.286 4.853 4.163 9.064 9.938 9.405 5.61.33 10.41-3.113 10.94-7.76Z"/></mask><path d="m54.641 49.967 2.404-1.894a3.06 3.06 0 0 0-4.511-.325l2.107 2.219Zm-17.57 8.798-.51-3.018a3.06 3.06 0 0 0-2.53 2.67l3.04.348Zm27.1-25.172-2.971-.731a3.06 3.06 0 0 0 2.517 3.757l.454-3.026ZM5.164 4.313l-1.73 2.524a3.06 3.06 0 0 0 4.11-.6l-2.38-1.924ZM-2.212 22.78l3.05.244a3.06 3.06 0 0 0-2.567-3.266l-.483 3.022Zm.03 5.8.711 2.975a3.06 3.06 0 0 0 2.336-3.251l-3.047.275Zm-5.131 2.975-2.266-2.056a3.06 3.06 0 0 0 2.893 5.05l-.627-2.994Zm5.54.04 3.011-.55a3.06 3.06 0 0 0-2.41-2.451l-.6 3Zm.33 1.583-.701 2.979a3.06 3.06 0 0 0 3.68-3.672l-2.98.693Zm-9.506 2.557 2.516 1.742-2.516-1.742Zm5.475 14.322-1.741 2.516 1.741-2.516Zm14.698.856 2.014-2.304a3.06 3.06 0 0 0-4.207.17l2.193 2.134Zm7.186 4.812 2.966.75a3.06 3.06 0 0 0-1.604-3.49l-1.362 2.74Zm-.216 1.395 3.055.18-3.055-.18Zm9.938 9.405.18-3.055-.18 3.055Zm26.402-18.777a30.575 30.575 0 0 1-15.972 8l1.019 6.034a36.696 36.696 0 0 0 19.167-9.597l-4.214-4.437Zm10.114 3.047a7.11 7.11 0 0 1-5.603-2.722l-4.808 3.787a13.23 13.23 0 0 0 10.411 5.055v-6.12Zm7.128-7.127a7.127 7.127 0 0 1-7.127 7.127v6.12c7.316 0 13.247-5.931 13.247-13.247h-6.12Zm-6.058-7.049a7.13 7.13 0 0 1 6.058 7.049h6.12c0-6.647-4.892-12.145-11.272-13.101l-.906 6.052Zm-1.63-11.116c0 2.54-.309 5.005-.888 7.359l5.942 1.462a36.876 36.876 0 0 0 1.065-8.82h-6.12ZM31.412-5.17c16.941 0 30.674 13.733 30.674 30.674h6.12c0-20.32-16.473-36.794-36.794-36.794v6.12ZM7.543 6.237c5.629-6.964 14.23-11.408 23.87-11.408v-6.12c-11.567 0-21.889 5.342-28.629 13.68l4.76 3.848ZM-.59 5.593a7.08 7.08 0 0 1 4.024 1.244l3.461-5.048A13.2 13.2 0 0 0-.59-.527v6.12Zm-7.127 7.128A7.127 7.127 0 0 1-.591 5.593v-6.12c-7.316 0-13.247 5.931-13.247 13.248h6.12Zm5.989 7.037a7.13 7.13 0 0 1-5.99-7.037h-6.12c0 6.601 4.827 12.07 11.143 13.08l.967-6.043Zm2.468 5.745c0-.835.034-1.662.099-2.48l-6.1-.487c-.079.98-.119 1.969-.119 2.967H.74Zm.126 2.8a31.102 31.102 0 0 1-.126-2.8h-6.12c0 1.13.051 2.247.151 3.352l6.095-.551Zm-5.912 5.308c.913-1.006 2.142-1.713 3.576-2.056l-1.423-5.952c-2.524.603-4.873 1.898-6.685 3.895l4.532 4.113Zm3.876-5.017c-2.292-.46-4.604-.487-6.769-.035l1.254 5.99c1.266-.264 2.738-.27 4.313.046l1.202-6.001Zm2.708 3.89c-.111-.475-.21-.955-.299-1.439l-6.02 1.098c.105.581.225 1.157.358 1.728l5.96-1.386Zm-9.97 4.992c.819-1.182 2.942-2.107 6.289-1.32L-.743 30.2c-4.603-1.083-9.882-.308-12.722 3.794l5.032 3.483Zm4.701 10.065c-2.432-1.684-4.053-3.81-4.797-5.756-.75-1.961-.523-3.415.096-4.308l-5.032-3.484c-2.104 3.038-2.012 6.756-.78 9.978 1.238 3.239 3.716 6.307 7.03 8.602l3.483-5.032ZM7.031 48.78c-.731.751-2.097 1.323-4.129 1.212-2.002-.11-4.377-.889-6.634-2.451l-3.483 5.032c3.084 2.136 6.534 3.352 9.783 3.53 3.22.176 6.533-.673 8.85-3.057L7.031 48.78Zm10.742 4.206a30.73 30.73 0 0 1-6.535-4.377l-4.027 4.608a36.852 36.852 0 0 0 7.836 5.248l2.726-5.48Zm1.476 4.315c.017-.284.06-.559.127-.826l-5.933-1.5a10.541 10.541 0 0 0-.303 1.965l6.109.36Zm7.063 6.169c-4.607-.272-7.222-3.48-7.063-6.17l-6.11-.36c-.414 7.016 5.87 12.23 12.812 12.64l.361-6.11Zm7.719-5.052c-.297 2.603-3.26 5.315-7.719 5.052l-.36 6.11c6.763.399 13.396-3.777 14.16-10.468l-6.081-.694Z" fill="#000" mask="url(#e)"/><path fill-rule="evenodd" clip-rule="evenodd" d="M30.083 11.099c-.988 1.222-1.914 2.804-2.641 4.615-1.936 4.82-1.737 9.436.445 10.313 2.183.877 5.52-2.32 7.457-7.138l.14-.357-5.4-7.433ZM47.007 33.022c.974-.99 1.926-2.228 2.762-3.65.931-1.582 1.595-3.18 1.974-4.637l-7.078-2.768a19.482 19.482 0 0 0-2.235 3.086c-.874 1.485-1.512 2.982-1.9 4.364l6.477 3.605Z" fill="#000"/></g><defs><radialGradient id="b" cx="0" cy="0" r="1" gradientUnits="userSpaceOnUse" gradientTransform="rotate(-133.169 19.938 5.77) scale(44.5843 44.5761)"><stop offset=".505" stop-color="gray"/><stop offset=".505"/><stop offset=".76"/><stop offset=".76" stop-color="#fff"/></radialGradient><radialGradient id="c" cx="0" cy="0" r="1" gradientUnits="userSpaceOnUse" gradientTransform="rotate(-121.051 14.902 1.49) scale(46.4903 46.4262)"><stop offset=".818" stop-color="gray"/><stop offset=".818" stop-color="#fff" stop-opacity="0"/></radialGradient><clipPath id="a"><path fill="#fff" d="M0 0h64v64H0z"/></clipPath></defs></svg>